<svg xmlns="http://www.w3.org/2000/svg" width="750" height="420" viewBox="0 0 750 420" role="img" aria-labelledby="e5-title e5-desc">
  <title id="e5-title">Detalhes de uma mesa posta</title>
  <desc id="e5-desc">Ilustração conceitual em close de cerâmicas artesanais, guardanapo vinho, talheres, copos e flores claras sobre madeira e linho. Uma composição imaginada, não uma reprodução da mesa ou dos utensílios do local.</desc>
  <defs>
    <linearGradient id="e5-wood" x2="0.7" y2="1"><stop stop-color="#e0b47c"/><stop offset="1" stop-color="#b27d4b"/></linearGradient>
    <linearGradient id="e5-linen" x2="0.5" y2="1"><stop stop-color="#fffaf4"/><stop offset="0.6" stop-color="#ecddc5"/><stop offset="1" stop-color="#d4bd99"/></linearGradient>
    <linearGradient id="e5-ceramic" x2="0.4" y2="1"><stop stop-color="#fffaf4"/><stop offset="0.52" stop-color="#f2e7d4"/><stop offset="1" stop-color="#cdb795"/></linearGradient>
    <linearGradient id="e5-napkin" x2="0.7" y2="1"><stop stop-color="#913f32"/><stop offset="0.5" stop-color="#6a0909"/><stop offset="1" stop-color="#4d1813"/></linearGradient>
    <linearGradient id="e5-metal"><stop stop-color="#89765c"/><stop offset="0.25" stop-color="#e5d3ac"/><stop offset="0.5" stop-color="#fffaf4"/><stop offset="0.7" stop-color="#bc9e70"/><stop offset="1" stop-color="#8e7756"/></linearGradient>
    <linearGradient id="e5-glass"><stop stop-color="#fffaf4" stop-opacity="0.7"/><stop offset="0.3" stop-color="#fffaf4" stop-opacity="0.08"/><stop offset="0.75" stop-color="#c7bc95" stop-opacity="0.32"/><stop offset="1" stop-color="#fffaf4" stop-opacity="0.85"/></linearGradient>
    <linearGradient id="e5-vase"><stop stop-color="#64704a"/><stop offset="0.35" stop-color="#a2a474"/><stop offset="0.6" stop-color="#899363"/><stop offset="1" stop-color="#556340"/></linearGradient>
    <pattern id="e5-weave" width="7" height="7" patternUnits="userSpaceOnUse"><path d="M0 1H7M1 0V7" stroke="#a98e6c" stroke-width="0.6" stroke-opacity="0.17"/></pattern>
    <pattern id="e5-mat" width="9" height="9" patternUnits="userSpaceOnUse" patternTransform="rotate(-15)"><rect width="9" height="9" fill="#b89461"/><path d="M0 2H9M0 6H9" stroke="#e1c494" stroke-width="2"/><path d="M2 0V9M7 0V9" stroke="#8e704c" stroke-width="0.8"/></pattern>
    <symbol id="e5-flower" viewBox="-23 -23 46 46"><path d="M0 -7C-12 -29 -25 -16 -11 -5C-34 -8 -27 13 -10 9C-24 27 -3 31 2 13C11 33 29 21 15 9C37 6 29 -13 12 -8C19 -30 -1 -32 0 -7Z" fill="#fff1d7" stroke="#d7b88f" stroke-width="0.8"/><path d="M-5 -8L-11 -15M-10 1L-18 1M-5 10L-10 18M7 10L12 17M13 0L21 -1M6 -9L9 -18" stroke="#e0c49f" stroke-width="1.2" stroke-linecap="round"/><path d="M-6 -3L-2 -8L4 -7L8 -2L6 5L1 8L-5 5Z" fill="#b78b44"/><g fill="#edd087"><circle cx="-2" cy="-3" r="1.5"/><circle cx="3" cy="-2" r="1.3"/><circle cy="3" r="1.6"/><circle cx="-4" cy="2" r="1"/></g></symbol>
    <g id="e5-leaf"><path d="M0 0C-22 -2 -38 -21 -34 -33C-13 -31 3 -16 0 0Z" fill="#768052"/><path d="M-3 -3L-29 -27M-14 -14L-25 -15M-18 -18L-20 -27" fill="none" stroke="#a7ae7b" stroke-width="1"/></g>
    <g id="e5-sprig"><path d="M0 0Q19 -22 54 -32" fill="none" stroke="#727b4c" stroke-width="2"/><path d="M9 -10Q-4 -23 3 -29Q16 -27 17 -18M21 -20Q13 -37 22 -39Q33 -32 28 -24M34 -26Q34 -43 44 -42Q49 -33 42 -29M16 -16Q27 -10 32 -15Q30 -25 21 -21M32 -25Q46 -20 50 -26Q42 -35 36 -27M47 -30Q58 -42 65 -35Q63 -26 47 -30" fill="#838b56"/><path d="M9 -21L13 -17M22 -32L25 -26M41 -37L39 -30" stroke="#b8be89" stroke-width="1"/></g>
    <g id="e5-paint"><path d="M-4 0Q0 -8 4 0Q0 6 -4 0Z" fill="#a76a4e"/><path d="M0 7V10" stroke="#b8885f" stroke-width="1.5" stroke-linecap="round"/></g>
    <g id="e5-fork"><path d="M-8 -44V-19Q-8 -10 -3 -8L-4 43Q0 51 4 43L3 -8Q8 -10 8 -19V-44H5V-23H2V-44H-1V-23H-4V-44Z" fill="url(#e5-metal)" stroke="#a68e69" stroke-width="0.7"/><path d="M0 -5V40" stroke="#fffaf4" stroke-opacity="0.8" stroke-width="1.2"/></g>
    <g id="e5-knife"><path d="M0 -48Q13 -38 10 -8L5 0L6 45Q2 51 -2 45V-47Z" fill="url(#e5-metal)" stroke="#a78c62" stroke-width="0.7"/><path d="M1 3L2 42M3 -41L4 -7" stroke="#fffaf4" stroke-width="1.2"/></g>
  </defs>
  <rect width="750" height="420" fill="url(#e5-wood)"/>
  <path d="M0 104L584 0M0 239L750 105M0 385L750 251" fill="none" stroke="#95643e" stroke-width="2"/><path d="M0 109L584 5M0 244L750 110M0 390L750 256" fill="none" stroke="#f2ce98" stroke-width="1.5" opacity="0.7"/>
  <g stroke="#96693f" fill="none" stroke-width="1" opacity="0.25"><path d="M11 63Q143 49 255 24M32 81Q122 61 170 64Q203 70 265 55L488 11M0 171Q103 162 145 145Q188 128 273 121L521 76M467 93Q539 75 599 71Q667 63 747 39M36 333Q122 318 182 303M461 368Q504 346 585 340Q657 336 733 311M469 397Q546 380 570 383Q593 390 656 376L750 361"/><path d="M599 314Q637 297 671 302Q674 311 633 316Q607 322 599 314ZM615 311Q637 306 650 307"/></g>
  <path d="M110 0H574L436 420H0V302Z" fill="#705238" opacity="0.13"/>
  <path d="M91 0H551L407 420H0V276Z" fill="url(#e5-linen)"/><path d="M91 0H551L407 420H0V276Z" fill="url(#e5-weave)"/>
  <path d="M101 0L0 309M535 0L392 420" stroke="#c4aa82" stroke-width="1.5"/><path d="M109 0L0 334M527 0L384 420" stroke="#fffaf4" stroke-width="1.5"/>
  <path d="M111 16L531 15M84 90L505 85M50 190L470 182M16 289L434 280M0 380L400 375" fill="none" stroke="#fffaf4" stroke-opacity="0.28" stroke-width="2"/>
  <path d="M501 0H600L750 249V352Z" fill="#fff1c9" opacity="0.22"/><path d="M625 0H655L750 150V201Z" fill="#fffaf4" opacity="0.15"/>
  <g transform="translate(47 61) rotate(-13)"><ellipse cy="9" rx="98" ry="53" fill="#735239" opacity="0.14"/><ellipse rx="97" ry="51" fill="#b88a5d"/><ellipse cy="-3" rx="92" ry="48" fill="#ecdfc4" stroke="#ab885e" stroke-width="2"/><ellipse cy="-4" rx="74" ry="37" fill="#fffaf4" stroke="#cdb997" stroke-width="1.5"/><ellipse cy="-4" rx="61" ry="29" fill="#f1e6d1"/><path d="M-62 -1Q-35 -27 20 -27Q58 -25 73 -10" fill="none" stroke="#fffaf4" stroke-width="3"/><path d="M-37 -18L2 -37L56 -2L17 17Z" fill="#9d7654"/><path d="M-31 -18L1 -32L49 -2M-21 -17L14 7" stroke="#d2b190" stroke-width="1" fill="none"/></g>
  <ellipse cx="260" cy="134" rx="61" ry="22" transform="rotate(-13 260 134)" fill="#78583e" opacity="0.14"/>
  <g transform="translate(249 115) rotate(-13)"><path d="M-60 -3Q-50 24 0 27Q48 26 61 1Z" fill="#ae7450"/><ellipse rx="61" ry="25" fill="#e3c5a0" stroke="#ab7953" stroke-width="1.5"/><ellipse cy="-2" rx="50" ry="19" fill="#f7e8cf"/><path d="M-36 -2Q-43 -18 -22 -26Q-5 -31 10 -22L20 -7Q3 9 -24 11Z" fill="#bf8b50"/><path d="M-34 -5Q-33 -22 -15 -23Q2 -27 12 -12Q-1 1 -25 6Z" fill="#ebc488"/><path d="M-24 -19L-15 -6M-11 -22L-3 -9M0 -20L7 -12" stroke="#9f673b" stroke-width="2.5" stroke-linecap="round"/><path d="M8 5Q0 -11 18 -19Q41 -22 46 -6L38 9Q18 19 8 5Z" fill="#bb854c"/><path d="M13 1Q10 -11 24 -15Q39 -18 41 -5L33 5Q18 12 13 1Z" fill="#e5bb7e"/><path d="M23 -12L28 2M32 -12L37 -4" stroke="#a36f3e" stroke-width="2" stroke-linecap="round"/><path d="M-44 10L-40 11M-5 14L-2 15M41 13L43 12" stroke="#a87948" stroke-width="2" stroke-linecap="round"/></g>
  <ellipse cx="307" cy="296" rx="179" ry="100" transform="rotate(-13 307 296)" fill="#684b36" opacity="0.17"/>
  <g transform="translate(290 270) rotate(-13)">
    <ellipse cy="6" rx="173" ry="103" fill="#9d794f"/><ellipse rx="173" ry="103" fill="url(#e5-mat)" stroke="#ccab77" stroke-width="3"/>
    <ellipse rx="164" ry="96" fill="none" stroke="#e2c597" stroke-width="1.4"/><ellipse rx="155" ry="90" fill="none" stroke="#97734d" stroke-width="1.2"/>
    <path d="M-141 -7C-142 -47 -83 -76 -4 -77C77 -79 141 -47 142 -6C145 33 79 75 0 77C-83 77 -143 45 -141 -7Z" fill="#b3936b"/>
    <path d="M-142 -13C-142 -53 -82 -82 -4 -83C77 -85 141 -53 142 -12C145 27 79 69 0 71C-83 71 -143 39 -142 -13Z" fill="url(#e5-ceramic)" stroke="#bca17a" stroke-width="1.8"/>
    <path d="M-133 -13C-132 -48 -75 -74 -2 -75C72 -77 134 -48 134 -12C133 24 73 61 0 63C-76 64 -134 33 -133 -13Z" fill="none" stroke="#fffaf4" stroke-width="2"/>
    <ellipse cy="-9" rx="108" ry="58" fill="#eee0c7" stroke="#c5a781" stroke-width="1.3"/>
    <use href="#e5-paint" transform="translate(-119 -22) rotate(-70)"/><use href="#e5-paint" transform="translate(-94 -51) rotate(-43)"/><use href="#e5-paint" transform="translate(-50 -66) rotate(-22)"/><use href="#e5-paint" transform="translate(0 -71)"/><use href="#e5-paint" transform="translate(50 -66) rotate(22)"/><use href="#e5-paint" transform="translate(94 -51) rotate(43)"/><use href="#e5-paint" transform="translate(121 -22) rotate(70)"/><use href="#e5-paint" transform="translate(115 15) rotate(114)"/><use href="#e5-paint" transform="translate(77 42) rotate(143)"/><use href="#e5-paint" transform="translate(30 54) rotate(170)"/><use href="#e5-paint" transform="translate(-25 55) rotate(190)"/><use href="#e5-paint" transform="translate(-77 42) rotate(217)"/><use href="#e5-paint" transform="translate(-114 16) rotate(248)"/>
    <ellipse cy="-6" rx="85" ry="44" fill="#ac997a" opacity="0.24"/><ellipse cy="-12" rx="84" ry="43" fill="#e3d7bf" stroke="#a6a07a" stroke-width="1.8"/><ellipse cy="-13" rx="76" ry="37" fill="#fffaf4"/><ellipse cy="-13" rx="64" ry="30" fill="#f6ebd6" stroke="#d9c6a7"/>
    <path d="M-58 -53L-1 -65L70 33L5 57Z" fill="#583124" opacity="0.15"/>
    <path d="M-68 -58L-11 -73L62 23L0 46Z" fill="url(#e5-napkin)"/><path d="M-68 -58L-27 -46L62 23L0 46Z" fill="#6a0909"/><path d="M-68 -58L-11 -73L-27 -46Z" fill="#a35c47"/><path d="M-27 -46L0 46L62 23Z" fill="#812b22"/>
    <path d="M-62 -54L3 38L55 21M-12 -66L-24 -47L49 19" fill="none" stroke="#c18b70" stroke-width="1" stroke-dasharray="2 3"/><path d="M-22 -36L-1 32M-57 -43L-7 29" stroke="#420f0e" stroke-opacity="0.32" stroke-width="2"/>
    <path d="M-33 -14L1 -30L18 -7L-13 10Z" fill="#ccaa72"/><path d="M-31 -12L1 -26L15 -7L-13 6Z" fill="none" stroke="#f3d79f" stroke-width="1.2"/>
    <use href="#e5-sprig" transform="translate(-13 -4) rotate(-18) scale(.88)"/>
  </g>
  <path d="M116 247L162 345M449 204L493 302" stroke="#78543a" stroke-opacity="0.14" stroke-width="10" stroke-linecap="round"/>
  <use href="#e5-fork" transform="translate(126 285) rotate(-24) scale(1.12)"/><use href="#e5-fork" transform="translate(100 282) rotate(-24) scale(.86)"/><use href="#e5-knife" transform="translate(462 250) rotate(-24) scale(1.1)"/>
  <g transform="translate(493 238) rotate(-24)"><ellipse cy="58" rx="7" ry="5" fill="#735239" opacity="0.12"/><path d="M-3 -5L-4 44Q0 50 4 44L3 -5Z" fill="url(#e5-metal)" stroke="#a78c62" stroke-width="0.7"/><ellipse cy="-22" rx="12" ry="20" fill="url(#e5-metal)" stroke="#b39a75"/><ellipse cx="-1" cy="-24" rx="8" ry="14" fill="#c5b18d"/><path d="M-6 -31Q-11 -17 -4 -11M0 0V41" fill="none" stroke="#fffaf4" stroke-width="1.3"/></g>
  <path d="M161 158L213 177L260 150L211 132Z" fill="#997753" opacity="0.12"/>
  <g transform="translate(171 134)"><ellipse cy="11" rx="31" ry="12" fill="#967a55" opacity="0.17"/><path d="M-29 -67L-24 4Q0 18 24 4L29 -67Z" fill="url(#e5-glass)" stroke="#b9ab8a" stroke-width="1.1"/><path d="M-27 -38L-24 3Q0 14 24 3L27 -38Z" fill="#b9c6b4" fill-opacity="0.25"/><ellipse cy="-38" rx="27" ry="9" fill="#e1e4cf" fill-opacity="0.4" stroke="#fcf4dd" stroke-width="1"/><ellipse cy="-67" rx="29" ry="10" fill="url(#e5-glass)" stroke="#fffaf4" stroke-width="1.8"/><ellipse cy="5" rx="23" ry="7" fill="none" stroke="#ddd5bb" stroke-width="1.5"/><path d="M-20 -58L-17 -5M-13 -56L-11 -7M19 -53L16 -9" stroke="#fffaf4" stroke-opacity="0.75" stroke-width="2" stroke-linecap="round"/><path d="M-22 -36L-6 -44L8 -33L-8 -24Z" fill="#fffaf4" fill-opacity="0.2" stroke="#f6f1df" stroke-opacity="0.6"/><path d="M6 -30L19 -39L23 -25L11 -17Z" fill="#fffaf4" fill-opacity="0.2" stroke="#f6f1df" stroke-opacity="0.6"/></g>
  <g transform="translate(401 119)"><path d="M-18 34L22 30L65 54L23 65Z" fill="#896b4b" opacity="0.1"/><ellipse cy="30" rx="24" ry="8" fill="url(#e5-glass)" stroke="#c4b291"/><path d="M0 -7V27M-2 -3V26Q-9 31 -18 30" fill="none" stroke="#d2c2a2" stroke-width="2"/><path d="M-26 -67Q-31 -9 0 -7Q31 -9 26 -67Z" fill="url(#e5-glass)" stroke="#c4b291" stroke-width="1.1"/><path d="M-26 -42Q-24 -11 0 -10Q24 -11 26 -42Q0 -31 -26 -42Z" fill="#e6bd7f" fill-opacity="0.37"/><ellipse cy="-67" rx="26" ry="9" fill="url(#e5-glass)" stroke="#fffaf4" stroke-width="1.6"/><path d="M-18 -58Q-23 -30 -11 -19M18 -57Q20 -40 16 -29" fill="none" stroke="#fffaf4" stroke-width="2" stroke-linecap="round"/></g>
  <path d="M557 206Q635 198 691 243Q651 265 597 246L551 219Z" fill="#705137" opacity="0.15"/>
  <path d="M554 134Q526 158 539 207Q565 231 602 212Q621 165 594 137L590 116L561 115Z" fill="url(#e5-vase)" stroke="#6d7750" stroke-width="1.2"/><ellipse cx="575" cy="116" rx="15" ry="5" fill="#566143"/><path d="M548 160Q539 186 550 208M554 157Q547 190 558 215M564 153Q559 185 566 217M578 151L578 219M590 153Q600 182 589 215M599 158Q610 182 598 209" fill="none" stroke="#c1c79a" stroke-opacity="0.4" stroke-width="1.8"/>
  <path d="M574 116Q556 71 523 42M575 115Q580 53 609 27M574 115L569 16M577 113Q618 71 651 69M572 108Q547 95 510 84M578 103Q611 45 640 12" fill="none" stroke="#6d7849" stroke-width="2.6"/>
  <use href="#e5-leaf" transform="translate(557 80) rotate(-24) scale(.78)"/><use href="#e5-leaf" transform="translate(571 71) rotate(28) scale(.65)"/><use href="#e5-leaf" transform="translate(586 79) rotate(25) scale(-.9 .9)"/><use href="#e5-leaf" transform="translate(607 86) rotate(40) scale(-.7 .7)"/><use href="#e5-leaf" transform="translate(533 92) rotate(-55) scale(.68)"/><use href="#e5-leaf" transform="translate(605 55) rotate(10) scale(-.6 .6)"/><use href="#e5-leaf" transform="translate(573 48) rotate(12) scale(-.6 .6)"/>
  <use href="#e5-flower" x="499" y="18" width="48" height="48"/><use href="#e5-flower" x="588" y="7" width="43" height="43"/><use href="#e5-flower" x="547" y="-8" width="44" height="44"/><use href="#e5-flower" x="628" y="45" width="47" height="47"/><use href="#e5-flower" x="491" y="65" width="38" height="38"/>
  <path d="M635 16C617 15 620 1 630 5C625 -8 640 -11 642 0C651 -11 663 1 652 8C665 13 649 26 635 16Z" fill="#a35943"/><path d="M635 7Q642 -2 648 7Q648 17 635 12Z" fill="#d79c72"/>
  <g transform="translate(644 352) rotate(-13)"><ellipse cy="11" rx="73" ry="34" fill="#644b35" opacity="0.13"/><ellipse rx="75" ry="35" fill="#eee1c8" stroke="#b59770" stroke-width="2"/><ellipse cy="-2" rx="60" ry="26" fill="#fffaf4" stroke="#d1ba98"/>
    <path d="M-36 -34Q-35 8 -5 12Q25 12 28 -34Z" fill="#b67450"/><path d="M27 -26Q52 -32 47 -12Q42 0 25 -4" fill="none" stroke="#a56446" stroke-width="8"/><path d="M30 -24Q44 -27 42 -16Q38 -7 29 -8" fill="none" stroke="#deb18b" stroke-width="2"/>
    <ellipse cx="-4" cy="-34" rx="32" ry="12" fill="#f5e4c9" stroke="#c68e66" stroke-width="2"/><ellipse cx="-4" cy="-32" rx="25" ry="8" fill="#694632"/><path d="M-22 -33Q-9 -38 11 -34" stroke="#c2915d" stroke-width="1.3" fill="none"/><path d="M-28 -23Q-27 -1 -13 3" stroke="#e4b88e" stroke-width="2" fill="none"/><path d="M19 13L55 3" stroke="#baa37b" stroke-width="4" stroke-linecap="round"/><ellipse cx="17" cy="14" rx="9" ry="4" fill="#d8c7a7" stroke="#b19872"/>
  </g>
  <path d="M488 361Q517 339 542 343" stroke="#8b8758" stroke-width="1.4" fill="none"/><use href="#e5-leaf" transform="translate(510 347) rotate(66) scale(-.5 .5)"/><path d="M482 365Q463 361 473 350Q488 347 492 358Z" fill="#ead1ab" stroke="#d5b387"/><path d="M516 374Q528 361 536 371Q536 382 526 384Z" fill="#f9e5c8" stroke="#d5b387"/>
</svg>
